<?xml version="1.0" encoding="UTF-8" standalone="no"?>
<!-- Created with Inkscape (http://www.inkscape.org/) -->

<svg
   xmlns:dc="http://purl.org/dc/elements/1.1/"
   xmlns:cc="http://creativecommons.org/ns#"
   xmlns:rdf="http://www.w3.org/1999/02/22-rdf-syntax-ns#"
   xmlns:svg="http://www.w3.org/2000/svg"
   xmlns="http://www.w3.org/2000/svg"
   xmlns:xlink="http://www.w3.org/1999/xlink"
   xmlns:sodipodi="http://sodipodi.sourceforge.net/DTD/sodipodi-0.dtd"
   xmlns:inkscape="http://www.inkscape.org/namespaces/inkscape"
   width="677.83527"
   height="608.84412"
   id="svg2"
   version="1.1"
   inkscape:version="0.48.4 r9939"
   sodipodi:docname="DataDrivenConventions.png">
  <defs
     id="defs4">
    <linearGradient
       inkscape:collect="always"
       id="linearGradient3830">
      <stop
         style="stop-color:#000000;stop-opacity:1;"
         offset="0"
         id="stop3832" />
      <stop
         style="stop-color:#000000;stop-opacity:0;"
         offset="1"
         id="stop3834" />
    </linearGradient>
    <radialGradient
       inkscape:collect="always"
       xlink:href="#linearGradient3830"
       id="radialGradient3320"
       gradientUnits="userSpaceOnUse"
       gradientTransform="matrix(1,0,0,0.97058822,0,18.930007)"
       cx="293.19061"
       cy="643.62"
       fx="293.19061"
       fy="643.62"
       r="58.638123" />
  </defs>
  <sodipodi:namedview
     id="base"
     pagecolor="#ffffff"
     bordercolor="#666666"
     borderopacity="1.0"
     inkscape:pageopacity="0.0"
     inkscape:pageshadow="2"
     inkscape:zoom="0.88"
     inkscape:cx="274.76502"
     inkscape:cy="155.92316"
     inkscape:document-units="px"
     inkscape:current-layer="layer1"
     showgrid="false"
     inkscape:snap-smooth-nodes="true"
     inkscape:window-width="1396"
     inkscape:window-height="1211"
     inkscape:window-x="642"
     inkscape:window-y="53"
     inkscape:window-maximized="0"
     fit-margin-top="0"
     fit-margin-left="0"
     fit-margin-right="0"
     fit-margin-bottom="0" />
  <metadata
     id="metadata7">
    <rdf:RDF>
      <cc:Work
         rdf:about="">
        <dc:format>image/svg+xml</dc:format>
        <dc:type
           rdf:resource="http://purl.org/dc/dcmitype/StillImage" />
        <dc:title></dc:title>
      </cc:Work>
    </rdf:RDF>
  </metadata>
  <g
     inkscape:label="Ebene 1"
     inkscape:groupmode="layer"
     id="layer1"
     transform="translate(-36.970669,-23.513613)">
    <g
       id="g3297"
       transform="matrix(2.2382972,0,0,2.1710702,-325.56782,-866.35871)">
      <g
         transform="translate(-10.227273,98.863636)"
         id="g3062">
        <path
           style="fill:#ffff00;fill-opacity:1;fill-rule:nonzero"
           d="m 404.65829,510.39006 c 0,44.76742 -38.22154,81.05858 -85.3702,81.05858 -47.14867,0 -85.37021,-36.29116 -85.37021,-81.05858 0,-44.76741 38.22154,-81.05857 85.37021,-81.05857 47.14866,0 85.3702,36.29116 85.3702,81.05857 z"
           id="path3868"
           inkscape:connector-curvature="0" />
        <g
           id="g3053"
           transform="matrix(-0.97620595,0.21684545,-0.21684545,-0.97620595,752.27494,931.17492)">
          <g
             transform="matrix(-0.90720801,0.42068234,-0.42068234,-0.90720801,865.97275,964.22091)"
             id="g3048">
            <path
               sodipodi:type="arc"
               id="path3060"
               sodipodi:cx="293.19061"
               sodipodi:cy="643.62"
               sodipodi:rx="58.638123"
               sodipodi:ry="56.913471"
               d="m 351.82874,643.62 c 0,31.43244 -26.25319,56.91347 -58.63813,56.91347 -32.38494,0 -58.63812,-25.48103 -58.63812,-56.91347 0,-31.43245 26.25318,-56.91348 58.63812,-56.91348 32.38494,0 58.63813,25.48103 58.63813,56.91348 z"
               style="fill:#ffe6d5;fill-opacity:1;fill-rule:nonzero;stroke:url(#radialGradient3320)"
               transform="matrix(0.99598695,-0.08949853,0.08949853,0.99598695,-58.967246,28.76221)" />
          </g>
          <text
             transform="translate(38.636364,-140.90909)"
             inkscape:transform-center-x="2.2376993"
             inkscape:transform-center-y="-6.6180225"
             sodipodi:linespacing="125%"
             id="text3872"
             style="font-size:40px;font-style:normal;font-weight:normal;line-height:125%;letter-spacing:0px;word-spacing:0px;fill:#000000;fill-opacity:1;stroke:none;font-family:Sans"
             xml:space="preserve"><textPath
               id="textPath3045"
               xlink:href="#path3060"><tspan
   id="tspan3874"
   style="font-size:20px;font-style:normal;font-variant:normal;font-weight:normal;font-stretch:normal;text-align:start;line-height:125%;writing-mode:lr-tb;text-anchor:start;font-family:Sans;-inkscape-font-specification:Sans">configuration as data</tspan></textPath></text>
        </g>
        <a
           id="a3880"
           inkscape:transform-center-x="-110.37764"
           transform="translate(36.363636,-126.13637)">
          <text
             sodipodi:linespacing="125%"
             id="text3876"
             y="634.9967"
             x="291.46597"
             style="font-size:40px;font-style:normal;font-weight:normal;line-height:125%;letter-spacing:0px;word-spacing:0px;fill:#000000;fill-opacity:1;stroke:none;font-family:Sans"
             xml:space="preserve"><tspan
               y="634.9967"
               x="291.46597"
               id="tspan3878"
               sodipodi:role="line"
               style="font-size:24px;font-style:normal;font-variant:normal;font-weight:normal;font-stretch:normal;text-align:center;line-height:125%;writing-mode:lr-tb;text-anchor:middle;font-family:Sans;-inkscape-font-specification:Sans">system</tspan><tspan
               y="664.9967"
               x="291.46597"
               sodipodi:role="line"
               id="tspan3884"
               style="font-size:24px;font-style:normal;font-variant:normal;font-weight:normal;font-stretch:normal;text-align:center;line-height:125%;writing-mode:lr-tb;text-anchor:middle;font-family:Sans;-inkscape-font-specification:Sans">adapter</tspan></text>
        </a>
      </g>
      <path
         inkscape:connector-curvature="0"
         d="m 273.31391,522.17998 c 1.36001,-3.27138 2.59069,-6.59336 3.90121,-9.88423 1.67477,-3.81704 2.14668,-7.94026 2.73761,-12.01785 0.39062,-3.85356 1.7386,-7.38295 3.46664,-10.81031 2.972,-5.63629 6.13127,-11.16684 9.08017,-16.81627 3.15322,-5.76306 5.20714,-11.99266 7.14492,-18.24018 1.73723,-6.028 3.90574,-11.92106 5.3762,-18.02309 0.74043,-3.13669 1.04251,-6.341 1.14411,-9.55419 0.0652,-2.2295 -0.11661,-4.45818 0.23074,-6.66845 1.70343,-6.83054 7.68094,-6.5327 16.02879,-10.27983 0.34951,-0.15688 1.48164,1.95867 1.49923,1.98848 1.22173,2.51823 2.11211,5.21065 2.99235,7.87038 0.89451,3.19701 2.29223,6.11636 3.95207,8.98207 2.77379,4.45213 5.46641,8.93927 7.61511,13.72914 1.99179,4.57863 3.67873,9.28187 5.10942,14.06402 0.91255,3.3903 1.53955,6.84597 1.99165,10.32511 0.39448,3.15064 0.48322,6.32782 0.51413,9.49951 -0.16212,4.01131 0.25355,8.00078 0.6218,11.98857 0.32845,3.10697 0.43846,6.22722 0.50471,9.34858 0.0283,2.57571 -0.0248,5.13953 0.30187,7.69793 0.21805,2.44535 0.72485,4.78847 1.66424,7.05181 0.57291,1.73074 1.51887,3.35284 1.38821,5.21013 -11.19583,7.81963 -11.26782,11.41878 -19.04889,7.24461 -2.61694,-1.52389 -5.23423,-3.0535 -7.92647,-4.44347 -2.73612,-1.48788 -5.66946,-2.52575 -8.53593,-3.71321 -2.64659,-0.92484 -5.20248,-2.08798 -7.87698,-2.93056 -2.58906,-0.64821 -5.26229,-0.75993 -7.91757,-0.82225 -2.647,-0.046 -5.29458,-0.0198 -7.94177,-0.006 -2.34412,0.0124 -4.68828,0.0162 -7.03244,0.0184 -1.17978,-0.15632 -2.0945,0.17767 -3.12204,0.67639 -0.30243,0.14679 -1.20609,0.59251 -0.91456,0.4251 15.39293,-8.83923 17.99223,-10.53981 12.85533,-7.2232 -1.11562,0.94074 -0.58181,0.4461 -1.60186,1.48347 0,0 -15.48787,6.58268 -15.48787,6.58268 l 0,0 c 0.89791,-1.26743 0.41116,-0.67696 1.45401,-1.77652 5.33709,-5.34933 12.72655,-10.09007 20.42916,-10.05952 2.33791,-0.002 4.67582,-0.005 7.01373,-0.009 2.66032,-0.002 5.32131,-0.0118 7.98086,0.0625 2.75903,0.14284 5.53205,0.38515 8.17969,1.22943 2.65986,0.95784 5.2803,2.0259 7.9273,3.01895 2.92034,1.1649 5.80145,2.42466 8.5923,3.87744 2.66242,1.44163 5.29273,2.9459 7.98413,4.32985 0.76097,0.32201 1.57458,0.75884 2.42283,0.78322 0.8861,0.0255 0.90669,-0.4037 0.89257,-0.39523 -4.63931,2.7805 -9.24029,5.62447 -13.86043,8.43671 0.15888,0.0106 0.33056,0.0952 0.47664,0.0318 0.45124,-0.19571 -0.87251,-3.24704 -1.0232,-3.80736 -0.97768,-2.39832 -1.61735,-4.85794 -1.81965,-7.45179 -0.38748,-2.62493 -0.47258,-5.22804 -0.38665,-7.88343 -0.0306,-3.10135 -0.1198,-6.20271 -0.35515,-9.29615 -0.30913,-4.01653 -0.82615,-8.02457 -0.75333,-12.05938 -0.0363,-3.12052 -0.0623,-6.24597 -0.38944,-9.35312 -0.39763,-3.41301 -1.09453,-6.7705 -1.81689,-10.1271 -1.27831,-4.75477 -2.94317,-9.39342 -4.89097,-13.91522 -2.09721,-4.74078 -4.81066,-9.14964 -7.59234,-13.51719 -1.7896,-2.92845 -3.36775,-5.90307 -4.30751,-9.21925 -0.7788,-2.53944 -1.5931,-5.13067 -2.83216,-7.47797 -0.12558,-0.18007 -0.20106,-0.40857 -0.37675,-0.54021 -0.0682,-0.0511 -0.31854,0.11682 -0.24445,0.0747 4.7515,-2.69968 9.57485,-5.27419 14.28199,-8.0505 0.50719,-0.29915 -2.63539,0.5275 -1.45077,0.95951 -0.49691,2.13638 -0.41793,4.26151 -0.4037,6.45233 -0.0958,3.35596 -0.40882,6.70198 -1.20719,9.97292 -1.51118,6.16321 -3.76375,12.08483 -5.49715,18.18595 -1.89875,6.32593 -3.84206,12.66183 -6.99256,18.5048 -2.93048,5.59858 -6.0186,11.11012 -8.90871,16.72817 -1.71972,3.26493 -3.17739,6.59805 -3.62833,10.30034 -0.71332,4.15065 -0.97497,8.41576 -2.59453,12.36201 -1.29098,3.21644 -2.43572,6.48817 -3.73795,9.6998 0,0 -15.27953,7.17583 -15.27953,7.17583 z"
         id="path3079"
         style="fill:#000000;fill-opacity:1;fill-rule:nonzero;stroke:none" />
      <path
         inkscape:connector-curvature="0"
         d="m 353.93575,528.09456 c 3.17281,-1.57634 6.28122,-3.27573 9.42946,-4.89926 3.76837,-1.78159 6.8299,-4.58349 9.95132,-7.27286 2.82326,-2.65174 6.15628,-4.43068 9.70915,-5.88326 5.941,-2.3033 11.95393,-4.40393 17.8861,-6.7323 6.16092,-2.28007 11.79839,-5.6335 17.35997,-9.07665 5.2662,-3.40909 10.76932,-6.43336 15.88279,-10.07335 2.61687,-1.88124 4.94731,-4.10112 7.13229,-6.45925 1.51207,-1.63969 2.8372,-3.44083 4.54958,-4.88086 5.76727,-4.0369 10.08269,0.10996 18.84094,2.75961 0.36669,0.11097 -0.16706,2.45024 -0.17334,2.48429 -0.73036,2.70197 -1.82505,5.31799 -2.90595,7.90268 -1.42266,2.99952 -2.2834,6.11967 -2.91113,9.37133 -0.82802,5.17975 -1.74027,10.33265 -3.26159,15.35713 -1.50115,4.7621 -3.31411,9.41821 -5.37222,13.96574 -1.53588,3.1572 -3.33014,6.17639 -5.27177,9.09852 -1.76957,2.63643 -3.78729,5.09227 -5.84504,7.50603 -2.75433,2.92071 -5.05832,6.20405 -7.39697,9.45501 -1.79075,2.56015 -3.75506,4.98699 -5.75313,7.38596 -1.66867,1.96229 -3.39098,3.8622 -4.82313,6.00721 -1.43994,1.98843 -2.59492,4.08917 -3.37108,6.41354 -0.70328,1.68199 -1.05375,3.52677 -2.37099,4.84262 -13.57959,-1.44507 -15.99547,1.22376 -19.12851,-7.03172 -0.97495,-2.86706 -1.94641,-5.73868 -3.06606,-8.5541 -1.08852,-2.91809 -2.62114,-5.62599 -4.00514,-8.40291 -1.39039,-2.43446 -2.55598,-4.98923 -4.0214,-7.37992 -1.52849,-2.18796 -3.47251,-4.02628 -5.43538,-5.81556 -1.96735,-1.77152 -3.98251,-3.48893 -5.98923,-5.21545 -1.7771,-1.52872 -3.54857,-3.06395 -5.31901,-4.60039 -0.78774,-0.89207 -1.69717,-1.24021 -2.79982,-1.53807 -0.32456,-0.0876 -1.29893,-0.34428 -0.9691,-0.27926 17.41588,3.42953 20.49323,3.85172 14.44056,2.98405 -1.45915,-0.0221 -0.73177,-0.0451 -2.18219,0.0684 0,0 -16.0069,-5.19469 -16.0069,-5.19469 l 0,0 c 1.50921,-0.3673 0.75445,-0.24109 2.2629,-0.3866 7.53749,-0.53491 16.22444,0.73608 22.01708,5.81314 1.76559,1.53249 3.53183,3.06423 5.29873,4.59521 2.00889,1.74404 4.0234,3.48262 5.98165,5.28374 1.98834,1.91811 3.92198,3.92046 5.36602,6.29481 1.37875,2.46807 2.65544,4.99344 4.00138,7.47965 1.43946,2.79523 2.78707,5.63631 3.93992,8.56382 1.06325,2.83484 2.06116,5.69588 3.18413,8.5062 0.36297,0.7423 0.69032,1.6058 1.31445,2.18076 0.65196,0.60065 0.94911,0.29029 0.9329,0.2874 -5.3254,-0.94578 -10.66352,-1.8185 -15.99529,-2.72775 0.11294,0.11229 0.187,0.28873 0.33883,0.33674 0.46894,0.14836 1.47209,-3.02283 1.72602,-3.54454 0.83585,-2.45136 1.96699,-4.72719 3.51626,-6.81735 1.42992,-2.23511 3.07371,-4.25536 4.88087,-6.20282 2.01183,-2.36048 3.97945,-4.75941 5.83158,-7.24826 2.40213,-3.23386 4.64181,-6.59771 7.34418,-9.59475 2.02011,-2.37869 4.05123,-4.75433 5.84308,-7.31375 1.93935,-2.83648 3.61643,-5.82744 5.27373,-8.83442 2.15514,-4.42689 3.94238,-9.01977 5.43944,-13.71013 1.52799,-4.95363 2.37316,-10.06112 3.13978,-15.18222 0.57097,-3.38414 1.33185,-6.66439 2.79851,-9.78353 1.07853,-2.42735 2.16424,-4.91709 2.76936,-7.50145 0.0234,-0.21828 0.11639,-0.44024 0.0702,-0.65486 -0.018,-0.0834 -0.31703,-0.12088 -0.23348,-0.10406 5.35704,1.08032 10.68616,2.30233 16.06001,3.29576 0.57904,0.10699 -2.33488,-1.33112 -1.72438,-0.22784 -1.77676,1.28615 -3.11154,2.94168 -4.5383,4.60429 -2.27428,2.46967 -4.70596,4.78932 -7.45464,6.73385 -5.18433,3.65944 -10.76963,6.65011 -16.08092,10.11689 -5.58357,3.52794 -11.20731,7.03416 -17.41861,9.37631 -5.88492,2.30208 -11.83168,4.43506 -17.6989,6.77833 -3.44003,1.33545 -6.72704,2.89431 -9.49657,5.39232 -3.26171,2.6642 -6.25768,5.71113 -10.06915,7.62646 -3.08467,1.58017 -6.09525,3.29804 -9.18526,4.86721 0,0 -16.23886,-4.6104 -16.23886,-4.6104 z"
         id="path3079-3"
         style="fill:#000000;fill-opacity:1;fill-rule:nonzero;stroke:none" />
      <path
         inkscape:connector-curvature="0"
         d="m 221.56233,576.87581 c -1.66246,-3.12855 -3.44617,-6.18935 -5.15513,-9.29204 -1.88391,-3.71828 -4.76844,-6.70209 -7.54211,-9.74884 -2.7279,-2.74974 -4.59728,-6.03289 -6.14642,-9.54474 -2.4648,-5.87583 -4.72897,-11.82911 -7.21859,-17.69543 -2.4476,-6.0963 -5.95385,-11.64002 -9.54771,-17.10542 -3.55174,-5.17106 -6.72527,-10.58948 -10.50365,-15.60156 -1.95206,-2.56447 -4.2348,-4.83338 -6.65176,-6.95309 -1.6804,-1.46669 -3.51709,-2.74211 -5.00338,-4.41449 -4.19301,-5.65479 -0.16563,-10.08193 2.24366,-18.90932 0.10091,-0.36959 2.45389,0.10003 2.48811,0.10537 2.72092,0.65625 5.36587,1.67904 7.97914,2.68889 3.03728,1.34016 6.17979,2.1153 9.44739,2.65393 5.20044,0.68615 10.37635,1.45724 15.44053,2.84067 4.80135,1.37044 9.50527,3.05547 14.10735,4.98854 3.19799,1.44902 6.26509,3.16009 9.23919,5.02114 2.68381,1.69685 5.19387,3.6467 7.66297,5.63771 2.99489,2.67349 6.33998,4.88688 9.65364,7.13581 2.60813,1.72012 5.08774,3.61736 7.54043,5.54912 2.00716,1.61442 3.95342,3.28416 6.13678,4.65716 2.02704,1.38506 4.15856,2.4822 6.50327,3.19454 1.70059,0.65705 3.55425,0.95698 4.90561,2.23776 -1.0734,13.61401 1.66045,15.95605 -6.50632,19.31354 -2.83934,1.05294 -5.68334,2.10252 -8.46711,3.29869 -2.88724,1.16787 -5.55225,2.77392 -8.29031,4.23329 -2.39555,1.45641 -4.91751,2.69138 -7.26726,4.2216 -2.14537,1.58771 -3.92987,3.58124 -5.66484,5.59229 -1.7171,2.01502 -3.37879,4.07636 -5.04982,6.12952 -1.47958,1.81822 -2.96583,3.63099 -4.4533,5.44275 -0.87022,0.81183 -1.19337,1.73043 -1.46098,2.84081 -0.0787,0.32683 -0.30865,1.30785 -0.25267,0.97637 2.95228,-17.5031 3.2902,-20.59084 2.58828,-14.51672 0.0178,1.45921 -0.0251,0.73273 0.12801,2.17951 0,0 -4.75529,16.14288 -4.75529,16.14288 l 0,0 c -0.4084,-1.4986 -0.26162,-0.74757 -0.4483,-2.25148 -0.7407,-7.52006 0.2924,-16.2385 5.20925,-22.16773 1.48366,-1.80682 2.96657,-3.61425 4.44868,-5.42233 1.68849,-2.05581 3.37137,-4.11709 5.1183,-6.12382 1.86305,-2.04002 3.8118,-4.02766 6.1458,-5.53605 2.42947,-1.4457 4.91901,-2.79092 7.3675,-4.2043 2.75485,-1.51532 5.55804,-2.94008 8.45295,-4.1725 2.80472,-1.14033 5.63742,-2.21606 8.416,-3.41542 0.7321,-0.38311 1.58633,-0.73393 2.14402,-1.37355 0.58261,-0.66813 0.26425,-0.95669 0.26179,-0.9404 -0.79988,5.34926 -1.52639,10.70923 -2.28958,16.06385 0.10917,-0.11596 0.28351,-0.19482 0.32735,-0.3479 0.13549,-0.47281 -3.06193,-1.38893 -3.59038,-1.6285 -2.47329,-0.76854 -4.77918,-1.83707 -6.9109,-3.32863 -2.27335,-1.36831 -4.33777,-2.95627 -6.3339,-4.70953 -2.41458,-1.94657 -4.86639,-3.84789 -7.40493,-5.63131 -3.2983,-2.31285 -6.7221,-4.45976 -9.79187,-7.07922 -2.43302,-1.95434 -4.86328,-3.91977 -7.47072,-5.64102 -2.88842,-1.8611 -5.92409,-3.45581 -8.97524,-5.03031 -4.48413,-2.03335 -9.12414,-3.6944 -13.85367,-5.06271 -4.99353,-1.39205 -10.12222,-2.09731 -15.26236,-2.72369 -3.39848,-0.47827 -6.69829,-1.14922 -9.85635,-2.53009 -2.45593,-1.01178 -4.9744,-2.02904 -7.57434,-2.56331 -0.21884,-0.0175 -0.44326,-0.10431 -0.65653,-0.0523 -0.0829,0.0202 -0.11218,0.32022 -0.0976,0.23624 0.93352,-5.38456 2.00943,-10.74509 2.85562,-16.14408 0.0911,-0.58175 -1.26681,2.37038 -0.18062,1.72997 1.33422,1.74094 3.02562,3.02998 4.72659,4.41076 2.53091,2.20594 4.91615,4.57332 6.93507,7.26782 3.79976,5.08238 6.94196,10.58387 10.5526,15.79843 3.67921,5.48507 7.33782,11.01088 9.84885,17.15585 2.46206,5.81981 4.75676,11.70605 7.2595,17.50704 1.42897,3.40224 3.07708,6.64543 5.64984,9.34565 2.75235,3.18768 5.88003,6.09926 7.89881,9.85697 1.66387,3.04033 3.46339,6.00283 5.11641,9.0488 0,0 -4.16487,16.3588 -4.16487,16.3588 z"
         id="path3079-3-6"
         style="fill:#000000;fill-opacity:1;fill-rule:nonzero;stroke:none" />
      <path
         inkscape:connector-curvature="0"
         d="m 417.22725,601.63629 c -3.15938,-0.0679 -6.32,-0.041 -9.47986,-0.0296 -0.46525,0.002 -0.9305,0.003 -1.39574,0.005 0,0 13.57466,-9.86257 13.57466,-9.86257 l 0,0 c 0.46069,0.002 0.92138,0.003 1.38207,0.005 3.18704,0.0116 6.37478,0.0373 9.56137,-0.0296 0,0 -13.6425,9.91185 -13.6425,9.91185 z"
         id="path3125"
         style="fill:#000000;fill-opacity:1;fill-rule:nonzero;stroke:none" />
      <path
         inkscape:connector-curvature="0"
         d="m 410.40907,630.04538 c -3.15939,-0.0679 -6.32,-0.041 -9.47986,-0.0296 0,0 13.56099,-9.85263 13.56099,-9.85263 l 0,0 c 3.18704,0.0116 6.37478,0.0373 9.56137,-0.0296 0,0 -13.6425,9.91185 -13.6425,9.91185 z"
         id="path3127"
         style="fill:#000000;fill-opacity:1;fill-rule:nonzero;stroke:none" />
      <path
         inkscape:connector-curvature="0"
         d="m 402.45452,658.45447 c -3.15938,-0.0679 -6.32,-0.041 -9.47986,-0.0296 -1.7309,0.007 -3.4618,0.0114 -5.1927,0.0149 0,0 13.60201,-9.88244 13.60201,-9.88244 l 0,0 c 1.71723,0.003 3.43446,0.008 5.15168,0.0149 3.18705,0.0116 6.37478,0.0373 9.56137,-0.0296 0,0 -13.6425,9.91185 -13.6425,9.91185 z"
         id="path3129"
         style="fill:#000000;fill-opacity:1;fill-rule:nonzero;stroke:none" />
      <path
         inkscape:connector-curvature="0"
         d="m 204.72725,590.27266 c -3.15938,-0.0679 -6.32,-0.041 -9.47986,-0.0296 -1.93817,0.0371 -3.86843,-0.24549 -5.68666,0.53691 0,0 13.41742,-10.27934 13.41742,-10.27934 l 0,0 c 1.93717,-0.20729 3.88557,-0.0934 5.83023,-0.11021 3.18704,0.0116 6.37478,0.0373 9.56137,-0.0296 0,0 -13.6425,9.91186 -13.6425,9.91186 z"
         id="path3131"
         style="fill:#000000;fill-opacity:1;fill-rule:nonzero;stroke:none" />
      <path
         inkscape:connector-curvature="0"
         d="m 187.75354,622.3225 c -3.8511,0.3618 -7.7108,0.59759 -11.57526,0.75025 -0.59375,0.0186 -1.18751,0.0372 -1.78126,0.0558 0,0 13.48593,-9.86166 13.48593,-9.86166 l 0,0 c 0.58289,-0.0176 1.16578,-0.0352 1.74867,-0.0528 3.8842,-0.16416 7.7772,-0.3852 11.62093,-0.99492 0,0 -13.49901,10.10332 -13.49901,10.10332 z"
         id="path3133"
         style="fill:#000000;fill-opacity:1;fill-rule:nonzero;stroke:none" />
      <path
         inkscape:connector-curvature="0"
         d="m 202.45452,656.18175 c -3.15938,-0.0679 -6.32,-0.041 -9.47986,-0.0296 -2.43186,0.18272 -4.96409,-0.32353 -7.34723,0.25032 0,0 13.49798,-10.08143 13.49798,-10.08143 l 0,0 c 2.46877,-0.0873 4.94038,-0.006 7.41024,-0.0215 3.18705,0.0116 6.37478,0.0373 9.56137,-0.0296 0,0 -13.6425,9.91186 -13.6425,9.91186 z"
         id="path3135"
         style="fill:#000000;fill-opacity:1;fill-rule:nonzero;stroke:none" />
    </g>
  </g>
</svg>
