<?xml version="1.0" encoding="UTF-8" standalone="no"?>
<!-- Created with Inkscape (http://www.inkscape.org/) -->

<svg
   xmlns:dc="http://purl.org/dc/elements/1.1/"
   xmlns:cc="http://creativecommons.org/ns#"
   xmlns:rdf="http://www.w3.org/1999/02/22-rdf-syntax-ns#"
   xmlns:svg="http://www.w3.org/2000/svg"
   xmlns="http://www.w3.org/2000/svg"
   xmlns:sodipodi="http://sodipodi.sourceforge.net/DTD/sodipodi-0.dtd"
   xmlns:inkscape="http://www.inkscape.org/namespaces/inkscape"
   width="1037.0923"
   height="612.64038"
   id="svg3174"
   version="1.1"
   inkscape:version="0.48.4 r9939"
   sodipodi:docname="SystemAdapterQuality.svg">
  <defs
     id="defs3176" />
  <sodipodi:namedview
     inkscape:document-units="mm"
     pagecolor="#ffffff"
     bordercolor="#666666"
     borderopacity="1.0"
     inkscape:pageopacity="0.0"
     inkscape:pageshadow="2"
     inkscape:zoom="0.43415836"
     inkscape:cx="478.78554"
     inkscape:cy="297.0613"
     inkscape:current-layer="layer1"
     id="namedview3178"
     showgrid="false"
     inkscape:window-width="838"
     inkscape:window-height="510"
     inkscape:window-x="518"
     inkscape:window-y="246"
     inkscape:window-maximized="0"
     units="mm"
     fit-margin-top="0"
     fit-margin-left="0"
     fit-margin-right="0"
     fit-margin-bottom="0" />
  <metadata
     id="metadata3180">
    <rdf:RDF>
      <cc:Work
         rdf:about="">
        <dc:format>image/svg+xml</dc:format>
        <dc:type
           rdf:resource="http://purl.org/dc/dcmitype/StillImage" />
        <dc:title></dc:title>
      </cc:Work>
    </rdf:RDF>
  </metadata>
  <g
     inkscape:label="Layer 1"
     inkscape:groupmode="layer"
     id="layer1"
     transform="translate(-11.214462,-48.515391)">
    <g
       transform="matrix(1.9554322,0,0,2.1804928,-168.31284,-13.787252)"
       id="g3137">
      <text
         sodipodi:linespacing="125%"
         id="text3030"
         y="58.96336"
         x="205.23344"
         style="font-size:40px;font-style:normal;font-weight:normal;line-height:125%;letter-spacing:0px;word-spacing:0px;fill:#000000;fill-opacity:1;stroke:none;font-family:Sans"
         xml:space="preserve"><tspan
           id="tspan3034"
           y="58.96336"
           x="205.23344"
           sodipodi:role="line">Module Quality</tspan></text>
      <text
         transform="scale(0.95969548,1.0419972)"
         sodipodi:linespacing="125%"
         id="text3038"
         y="260.16907"
         x="175.10667"
         style="font-size:24px;font-style:normal;font-variant:normal;font-weight:normal;font-stretch:normal;text-align:center;line-height:125%;letter-spacing:0px;word-spacing:0px;writing-mode:lr-tb;text-anchor:middle;fill:#000000;fill-opacity:1;stroke:none;font-family:Sans;-inkscape-font-specification:Sans"
         xml:space="preserve"><tspan
           y="260.16907"
           x="175.10667"
           id="tspan3040"
           sodipodi:role="line"><tspan
   id="tspan3044"
   style="font-size:24px;font-style:normal;font-variant:normal;font-weight:normal;font-stretch:normal;text-align:center;line-height:125%;writing-mode:lr-tb;text-anchor:middle;font-family:Sans;-inkscape-font-specification:Sans">Simple</tspan> usage</tspan><tspan
           id="tspan3042"
           y="290.16907"
           x="175.10667"
           sodipodi:role="line">but specific</tspan></text>
      <text
         sodipodi:linespacing="125%"
         id="text3046"
         y="274.54474"
         x="508.77194"
         style="font-size:24px;font-style:normal;font-variant:normal;font-weight:normal;font-stretch:normal;text-align:center;line-height:125%;letter-spacing:0px;word-spacing:0px;writing-mode:lr-tb;text-anchor:middle;fill:#000000;fill-opacity:1;stroke:none;font-family:Sans;-inkscape-font-specification:Sans"
         xml:space="preserve"><tspan
           id="tspan3050"
           y="274.54474"
           x="508.77194"
           sodipodi:role="line">General</tspan><tspan
           id="tspan3054"
           y="304.54474"
           x="508.77194"
           sodipodi:role="line">but complex usage</tspan></text>
      <path
         inkscape:connector-curvature="0"
         d="m 113.45457,229.22444 c 3.86764,0.0888 7.73675,0.0731 11.60509,0.056 3.05441,-0.11021 6.13114,0.1641 9.16716,-0.21732 3.38139,-0.52022 6.71553,-1.28106 10.11096,-1.73115 2.90467,-0.40399 5.83939,-0.23537 8.74872,-0.52895 3.7792,-0.45444 7.57657,-0.71161 11.37949,-0.84437 3.01045,-0.0992 6.02253,-0.12431 9.03436,-0.13471 2.73765,-0.0782 5.4387,-0.63995 8.17585,-0.87238 2.82011,-0.22075 5.65087,-0.22997 8.47786,-0.25373 3.12626,-0.57409 6.30719,-0.76593 9.47533,-0.95872 2.34621,-0.55921 4.7022,-0.99669 7.10621,-1.19477 3.13634,-0.13993 6.2771,-0.0973 9.41562,-0.0937 5.56327,-0.0374 11.12502,0.10344 16.68769,0.15923 7.83659,0.0485 15.67314,-0.0214 23.50914,-0.11072 6.62584,0.007 13.25183,0.0445 19.87745,0.10079 8.70108,0.072 17.40244,0.008 26.10332,-0.0571 6.56108,-0.0726 13.12217,0.0165 19.68319,0.0297 6.69434,-0.0624 13.3748,0.48302 20.05891,0.78454 3.67442,0.17466 7.35289,0.19752 11.03053,0.22036 4.03955,0.0374 8.07922,0.0426 12.11891,0.0442 5.89424,-9.8e-4 11.7882,0.0591 17.68241,0.074 5.61689,0.009 11.23349,-0.0467 16.85004,-0.0992 3.87661,-0.0414 7.75334,0.0112 11.62994,0.033 4.24188,0.0189 8.48369,-0.0228 12.72544,-0.051 3.33956,-0.0143 6.67904,0.0169 10.01867,0.0126 3.22044,0.007 6.44084,-0.0139 9.66125,-0.026 2.39579,-0.82718 4.73156,-0.54142 7.20042,-0.36766 4.71843,0.30149 9.44806,0.36627 14.17442,0.4285 6.22004,0.0709 12.44052,0.0434 18.66075,0.0228 6.26147,-0.17427 12.50076,0.22374 18.74691,0.5834 4.59357,0.25413 9.19191,0.40465 13.79197,0.45933 2.56011,0.014 5.12028,0.0137 7.68042,0.0151 2.37625,0.24647 4.59589,-0.20647 6.89768,-0.66682 2.20627,-0.40258 4.45197,-0.42334 6.68648,-0.45951 1.16015,0.16017 2.30802,0.39268 3.46088,0.5964 0,0 -13.78657,9.66365 -13.78657,9.66365 l 0,0 c -1.07138,-0.17747 -2.14451,-0.38338 -3.23688,-0.34827 -2.20259,0.0875 -4.40626,0.24033 -6.5658,0.71112 -2.3329,0.4344 -4.67249,0.42452 -7.04124,0.37495 -2.55542,0.004 -5.11127,0.0128 -7.6657,-0.0746 -4.5183,-0.15528 -9.0306,-0.43244 -13.54295,-0.70729 -6.26004,-0.34878 -12.51516,-0.59521 -18.78699,-0.43996 -6.20755,-0.0232 -12.41507,-0.0526 -18.62264,-0.0694 -4.81924,-0.0286 -9.64018,-0.0573 -14.45381,-0.31859 -2.43981,-0.094 -4.76137,0.22023 -7.1782,0.46397 -3.19657,-0.0122 -6.39315,-0.0331 -9.58976,-0.026 -3.35121,-0.004 -6.70226,0.0268 -10.0534,0.0126 -4.19495,-0.0284 -8.38997,-0.0702 -12.58505,-0.051 -3.90686,0.0217 -7.81386,0.0741 -11.72073,0.0329 -5.52577,-0.053 -11.0516,-0.10908 -16.57773,-0.0985 -5.96567,0.0159 -11.93105,0.0762 -17.89673,0.0828 -4.08276,0.006 -8.16551,0.0277 -12.24822,0.0306 -3.63926,-0.0406 -7.27598,-0.19098 -10.9093,-0.40132 -6.59227,-0.41894 -13.18737,-0.98206 -19.79908,-0.86245 -6.58823,0.0131 -13.17654,0.102 -19.76481,0.0297 -8.64853,-0.0659 -17.29754,-0.12882 -25.94627,-0.057 -6.71804,0.0558 -13.43643,0.0934 -20.15469,0.10049 -7.73134,-0.0921 -15.46323,-0.1623 -23.1952,-0.11783 -5.70163,0.0522 -11.40241,0.17984 -17.10453,0.15016 -3.14864,0.0217 -6.30696,0.0104 -9.44323,0.32448 -2.36499,0.30113 -4.68368,0.87825 -7.06121,1.07862 -3.2024,0.2185 -6.37752,0.64981 -9.57225,0.91558 -2.79657,0.0295 -5.59581,0.0845 -8.38085,0.36322 -2.76096,0.29946 -5.50605,0.85273 -8.29538,0.76355 -2.96907,10e-4 -5.93895,0.008 -8.90629,0.12235 -3.79031,0.17905 -7.56982,0.48365 -11.34136,0.90425 -2.91197,0.19632 -5.84008,0.20547 -8.73312,0.63536 -3.39673,0.50851 -6.74545,1.30993 -10.16374,1.66102 -3.0619,0.1614 -6.12788,0.0494 -9.19292,0.0545 -3.91977,-0.0175 -7.84023,-0.0308 -11.759342,0.056 0,0 13.642502,-9.91185 13.642502,-9.91185 z"
         id="path3033"
         style="fill:#000000;fill-opacity:1;fill-rule:nonzero;stroke:none" />
      <path
         inkscape:connector-curvature="0"
         d="m 530.17319,227.96902 c 0.31515,-9.057 0.21916,-18.11824 -0.23692,-27.16689 -0.38371,-5.97892 -0.70614,-11.96036 -0.87093,-17.94943 0.24277,-5.27232 0.47558,-10.55497 0.93883,-15.8135 0.55985,-4.44433 0.90202,-8.90327 1.08306,-13.37758 0.16071,-4.7479 0.17454,-9.49913 0.18464,-14.24925 0.0121,-4.52909 -0.0421,-9.05792 -0.0572,-13.58691 -0.0202,-3.03647 -0.0489,-6.07287 -0.0641,-9.10937 -0.0199,-2.49148 0.005,-4.98285 0.005,-7.47433 0.0499,-3.30987 0.0385,-6.62023 0.0198,-9.930307 0.009,-2.878597 -0.0121,-5.757176 -0.0235,-8.63574 -10e-4,-0.409955 -0.003,-0.81991 -0.004,-1.229865 0,0 14.97721,-7.631267 14.97721,-7.631267 l 0,0 c -10e-4,0.411307 -0.003,0.822614 -0.004,1.233922 -0.0114,2.886548 -0.0322,5.773113 -0.0235,8.659695 -0.0186,3.303365 -0.0304,6.607028 0.0197,9.910182 -5e-5,2.48978 0.0245,4.97945 0.005,7.46923 -0.0147,3.057 -0.0421,6.11392 -0.0587,9.17091 -0.009,4.54633 -0.0531,9.09256 -0.0403,13.63894 0.004,4.75741 0.0398,9.51628 -0.0871,14.27246 -0.17579,4.51019 -0.43722,9.02222 -1.09625,13.49168 -0.56052,5.19197 -0.72732,10.42672 -1.03074,15.6385 0.0957,6.01554 0.29643,12.0282 0.60765,18.03668 0.40867,9.05425 0.12888,18.10789 0.41021,27.16584 0,0 -14.65362,7.4664 -14.65362,7.4664 z"
         id="path3035"
         style="fill:#000000;fill-opacity:1;fill-rule:nonzero;stroke:none" />
      <path
         inkscape:connector-curvature="0"
         d="m 119.8693,227.41656 c 5.77249,-1.82512 11.4292,-4.02492 16.98611,-6.42506 4.5385,-1.82202 8.70447,-4.41212 13.13629,-6.44463 3.81309,-1.76198 7.65449,-3.46338 11.46481,-5.23338 4.20899,-2.09555 8.46535,-4.1055 12.76116,-6.02127 3.6299,-1.54458 6.92592,-3.71848 10.51203,-5.35478 3.34787,-1.83234 6.88608,-3.2618 10.46996,-4.55686 3.23138,-1.21087 6.43434,-2.48839 9.64309,-3.75987 2.88046,-1.02021 5.77964,-1.75088 8.81153,-2.14223 2.4086,-0.94968 4.9953,-0.9648 7.4918,-1.47104 3.1484,-0.5997 6.33213,-0.88382 9.53159,-0.96902 4.77259,-0.11826 9.53172,-0.62136 14.29655,-0.93849 5.26021,-0.7115 10.37151,-2.2092 15.56028,-3.3108 4.31838,-1.13686 8.71423,-1.88975 13.06469,-2.87462 3.91431,-0.96067 7.69716,-2.33339 11.55345,-3.48677 4.47102,-1.11716 8.79599,-2.71977 13.15053,-4.2116 3.4019,-1.13551 6.70117,-2.48201 10.23915,-3.14077 2.76108,-0.63265 5.42582,-1.51626 8.14415,-2.30258 3.23168,-0.93672 6.57838,-1.50858 9.80078,-2.46533 3.74129,-1.11874 7.54272,-1.96418 11.33644,-2.87687 4.88152,-0.99018 9.70529,-2.20439 14.50342,-3.5365 7.54119,-1.8231 15.14337,-3.42062 22.74263,-4.99349 5.99665,-1.04891 11.88771,-2.55742 17.79758,-3.99103 4.99986,-1.12258 9.92308,-2.54594 14.75366,-4.2519 3.57877,-1.20607 7.13152,-2.48011 10.79876,-3.39419 2.802,-0.932 5.65005,-1.78162 8.38119,-2.90704 2.59944,-1.30392 5.28877,-2.47092 8.0225,-3.47967 5.49186,-2.01248 11.18697,-3.45073 16.79296,-5.14029 5.73995,-1.62029 11.32261,-3.71405 16.88342,-5.85168 -1.19279,0.91199 4.34234,-2.24196 3.28262,-1.63317 -28.87381,16.58771 -2.28961,0.96776 6.51521,-3.74654 5.15679,-2.75242 14.73394,-8.09554 -8.4455,4.95897 -0.58471,0.3293 1.13824,-0.71151 1.69605,-1.08456 1.36387,-0.91216 1.71123,-1.2087 2.99902,-2.19235 2.1667,-1.66341 4.26957,-3.40633 6.41826,-5.09289 6.33337,-4.76407 13.41669,-8.19786 20.56965,-11.36676 5.79212,-2.901292 16.42542,-9.183025 -8.36985,5.04937 9.07569,-5.87131 37.69223,-22.052775 7.68161,-4.74799 6.77555,-4.584175 13.83337,-8.200252 21.12118,-11.610075 2.22351,-0.810246 4.33861,-1.810427 6.62807,-2.443218 2.45997,-0.66025 4.87428,-1.362191 7.41069,-1.689162 1.50733,-0.422462 0.74852,-0.221945 2.27654,-0.601159 0,0 -13.36829,10.204522 -13.36829,10.204522 l 0,0 c -1.55411,0.363976 -0.76824,0.199378 -2.35789,0.492371 -2.45585,0.458366 -4.83835,1.195538 -7.23956,1.876539 -2.2081,0.790419 -4.37573,1.705862 -6.51748,2.660542 -5.84377,2.89234 -17.48796,8.58835 7.69677,-4.9131 -5.19465,3.005383 -10.36591,6.05156 -15.58395,9.01615 -4.37331,2.48466 8.68723,-5.072605 13.04966,-7.576315 0.44544,-0.255649 -0.85992,0.562034 -1.29725,0.831309 -1.29083,0.794783 -2.5592,1.609858 -3.82943,2.438256 -6.77123,3.92258 -13.41368,8.13111 -20.49544,11.49033 -0.98163,0.46204 -2.00135,0.83787 -2.97195,1.32281 -0.35375,0.17674 -1.38497,0.76382 -1.04302,0.56522 13.21909,-7.67736 17.97814,-9.97716 12.26942,-7.18228 -2.30556,1.52532 -4.2961,3.47255 -6.55047,5.06707 -7.48076,6.11101 -16.24584,10.35437 -24.70194,14.96297 -6.13226,3.38877 -2.35037,1.31504 10.66714,-6.22258 0.51594,-0.29875 -1.03325,0.59512 -1.54945,0.89342 -6.35475,3.67222 -12.25413,7.88803 -19.0513,10.52901 -5.50352,2.06207 -11.07172,3.95032 -16.7208,5.57674 -5.71503,1.70965 -11.50148,3.25799 -17.03758,5.49694 -2.71486,1.11189 -5.37491,2.34694 -8.07312,3.4965 -2.78733,0.95517 -5.55271,1.98137 -8.41037,2.71504 -3.60456,1.01338 -7.13211,2.27348 -10.68519,3.45095 -4.85246,1.58461 -9.78478,2.89315 -14.75217,4.06718 -5.83257,1.4391 -11.69366,2.73366 -17.61251,3.77605 -7.65523,1.58214 -15.31598,3.2117 -22.86835,5.22857 -4.83534,1.34904 -9.72148,2.48026 -14.62568,3.55082 -3.84339,0.90296 -7.64225,1.94541 -11.44336,3.01051 -3.25987,0.75637 -6.50563,1.56013 -9.72283,2.48578 -2.72668,0.87541 -5.49037,1.59 -8.28265,2.22627 -3.40026,0.81965 -6.64025,2.13168 -9.97149,3.18376 -4.36349,1.47369 -8.7035,3.01926 -13.16841,4.16827 -3.88531,1.24736 -7.75331,2.55991 -11.7413,3.45371 -4.29368,0.91391 -8.62245,1.65862 -12.88361,2.72689 -5.25616,1.1397 -10.43874,2.77157 -15.82016,3.19952 -4.79582,0.2901 -9.57832,0.77209 -14.37951,0.96326 -3.17279,0.20705 -6.33215,0.55498 -9.45399,1.17513 -2.53292,0.37231 -5.01705,0.89747 -7.51642,1.44148 -2.94189,0.50936 -5.78239,1.37742 -8.56998,2.4466 -3.17337,1.28774 -6.40439,2.42147 -9.59283,3.67066 -3.55929,1.37749 -7.0315,2.93394 -10.41546,4.70153 -3.49409,1.75149 -6.8492,3.77991 -10.47171,5.27063 -4.28921,1.93591 -8.53134,3.97615 -12.75868,6.0431 -3.80653,1.75042 -7.63633,3.44973 -11.42776,5.23312 -4.34356,2.17152 -8.60744,4.51201 -13.11964,6.33205 -5.65438,2.33492 -11.38714,4.5019 -17.21939,6.35145 0,0 13.20532,-10.16746 13.20532,-10.16746 z"
         id="path3037"
         style="fill:#000000;fill-opacity:1;fill-rule:nonzero;stroke:none" />
    </g>
  </g>
</svg>
